# xmcd CD database file
#
# Track frame offsets:
#	150
#	45450
#	77100
#	107550
#	129525
#	177300
#	198150
#	253725
#
# Disc length: 3762 seconds
#
# Revision: 0
# Processed by: cddbd v1.5.2PL0 Copyright (c) Steve Scherf et al.
# Submitted via: CDex 1.70beta2
#
DISCID=640eb008
DTITLE=Waclaw Zimpel - Stone Fog
DYEAR=2012
DGENRE=Jazz
TTITLE0=Cold Blue Sky
TTITLE1=Old Feet Feel Out The Path
TTITLE2=A Sudden Shift Missed
TTITLE3=As The Moon Dips In Nettles
TTITLE4=Hundred Of Wings Steel The Sun
TTITLE5=River Willows Sway
TTITLE6=One Side Of My Face Is Colder Than The Other
TTITLE7=Stone Fog
EXTD=YEAR: 2012
EXTT0=
EXTT1=
EXTT2=
EXTT3=
EXTT4=
EXTT5=
EXTT6=
EXTT7=
PLAYORDER=
